REM DIRINDEX 1\2,1\3,1\4,1\5
REM DIRNAME "folder01","folder02","folder03","folder04","folder05"
TITLE ""
FILE "P1Q_t_1210-1219.mp3" MP3
  TRACK 01 AUDIO
    TITLE "3:cjc173_4596"
    INDEX 01 00:00:00
  TRACK 02 AUDIO
    TITLE "0:"
    INDEX 01 00:01:14
  TRACK 03 AUDIO
    TITLE "4:cjc173_4597"
    INDEX 01 00:01:33
  TRACK 04 AUDIO
    TITLE "0:"
    INDEX 01 00:04:36
  TRACK 05 AUDIO
    TITLE "5:cjc173_4598"
    INDEX 01 00:04:55
  TRACK 06 AUDIO
    TITLE "0:"
    INDEX 01 00:08:43
  TRACK 07 AUDIO
    TITLE "3:cjc173_4599"
    INDEX 01 00:09:11
  TRACK 08 AUDIO
    TITLE "0:"
    INDEX 01 00:10:20
  TRACK 09 AUDIO
    TITLE "4:cjc173_4600"
    INDEX 01 00:10:40
  TRACK 10 AUDIO
    TITLE "0:"
    INDEX 01 00:12:13
  TRACK 11 AUDIO
    TITLE "5:cjc173_4601"
    INDEX 01 00:12:33
  TRACK 12 AUDIO
    TITLE "0:"
    INDEX 01 00:17:34
  TRACK 13 AUDIO
    TITLE "3:cjc173_4602"
    INDEX 01 00:18:04
  TRACK 14 AUDIO
    TITLE "0:"
    INDEX 01 00:19:33
  TRACK 15 AUDIO
    TITLE "4:cjc173_4603"
    INDEX 01 00:19:55
  TRACK 16 AUDIO
    TITLE "0:"
    INDEX 01 00:21:52
  TRACK 17 AUDIO
    TITLE "5:cjc173_4604"
    INDEX 01 00:21:71
  TRACK 18 AUDIO
    TITLE "0:"
    INDEX 01 00:25:12
  TRACK 19 AUDIO
    TITLE "3:cjc173_4605"
    INDEX 01 00:25:59
  TRACK 20 AUDIO
    TITLE "0:"
    INDEX 01 00:26:70
  TRACK 21 AUDIO
    TITLE "4:cjc173_4606"
    INDEX 01 00:27:15
  TRACK 22 AUDIO
    TITLE "0:"
    INDEX 01 00:30:13
  TRACK 23 AUDIO
    TITLE "5:cjc173_4607"
    INDEX 01 00:30:33
  TRACK 24 AUDIO
    TITLE "0:"
    INDEX 01 00:34:13
  TRACK 25 AUDIO
    TITLE "3:cjc173_4608"
    INDEX 01 00:34:58
  TRACK 26 AUDIO
    TITLE "0:"
    INDEX 01 00:36:18
  TRACK 27 AUDIO
    TITLE "4:cjc173_4609"
    INDEX 01 00:36:37
  TRACK 28 AUDIO
    TITLE "0:"
    INDEX 01 00:39:61
  TRACK 29 AUDIO
    TITLE "5:cjc173_4610"
    INDEX 01 00:40:06
  TRACK 30 AUDIO
    TITLE "0:"
    INDEX 01 00:44:21
  TRACK 31 AUDIO
    TITLE "3:cjc173_4611"
    INDEX 01 00:44:66
  TRACK 32 AUDIO
    TITLE "0:"
    INDEX 01 00:46:14
  TRACK 33 AUDIO
    TITLE "4:cjc173_4612"
    INDEX 01 00:46:34
  TRACK 34 AUDIO
    TITLE "0:"
    INDEX 01 00:48:31
  TRACK 35 AUDIO
    TITLE "5:cjc173_4613"
    INDEX 01 00:48:50
  TRACK 36 AUDIO
    TITLE "0:"
    INDEX 01 00:54:18
  TRACK 37 AUDIO
    TITLE "3:cjc173_4614"
    INDEX 01 00:54:63
  TRACK 38 AUDIO
    TITLE "0:"
    INDEX 01 00:56:03
  TRACK 39 AUDIO
    TITLE "4:cjc173_4615"
    INDEX 01 00:56:25
  TRACK 40 AUDIO
    TITLE "0:"
    INDEX 01 00:58:72
  TRACK 41 AUDIO
    TITLE "5:cjc173_4616"
    INDEX 01 00:59:19
  TRACK 42 AUDIO
    TITLE "0:"
    INDEX 01 01:02:35
  TRACK 43 AUDIO
    TITLE "3:cjc173_4617"
    INDEX 01 01:03:05
  TRACK 44 AUDIO
    TITLE "0:"
    INDEX 01 01:04:20
  TRACK 45 AUDIO
    TITLE "4:cjc173_4618"
    INDEX 01 01:04:42
  TRACK 46 AUDIO
    TITLE "0:"
    INDEX 01 01:06:05
  TRACK 47 AUDIO
    TITLE "5:cjc173_4619"
    INDEX 01 01:06:25
  TRACK 48 AUDIO
    TITLE "0:"
    INDEX 01 01:11:08
  TRACK 49 AUDIO
    TITLE "3:cjc173_4620"
    INDEX 01 01:11:53
  TRACK 50 AUDIO
    TITLE "0:"
    INDEX 01 01:13:17
  TRACK 51 AUDIO
    TITLE "4:cjc173_4621"
    INDEX 01 01:13:37
  TRACK 52 AUDIO
    TITLE "0:"
    INDEX 01 01:16:41
  TRACK 53 AUDIO
    TITLE "5:cjc173_4622"
    INDEX 01 01:16:60
  TRACK 54 AUDIO
    TITLE "0:"
    INDEX 01 01:21:38
  TRACK 55 AUDIO
    TITLE "3:cjc173_4623"
    INDEX 01 01:22:06
  TRACK 56 AUDIO
    TITLE "0:"
    INDEX 01 01:23:23
  TRACK 57 AUDIO
    TITLE "4:cjc173_4624"
    INDEX 01 01:23:45
  TRACK 58 AUDIO
    TITLE "0:"
    INDEX 01 01:26:51
  TRACK 59 AUDIO
    TITLE "5:cjc173_4625"
    INDEX 01 01:26:71
  TRACK 60 AUDIO
    TITLE "0:"
    INDEX 01 01:31:68
